# xmcd
#
# Track frame offsets:
#	150
#	21858
#	39128
#	54418
#	73976
#	89603
#	106576
#	121766
#	138021
#	151591
#	168861
#	183001
#
# Disc length: 2628 seconds
#
# Revision: 0
# Processed by: cddbd v1.4PL0 Copyright (c) Steve Scherf et al.
# Submitted via: dBpowerAMP V4.0
#
DISCID=840a420c
DTITLE=Kenny Rogers - With Love
DYEAR=1998
DGENRE=Country
TTITLE0=Have I Told You Lately That I Love You
TTITLE1=Endless Love
TTITLE2=Unforgettable
TTITLE3=She Believes In Me
TTITLE4=When I Fall In Love
TTITLE5=When A Man Loves A Woman
TTITLE6=I Can't Help Falling In Love
TTITLE7=The Wind Beneath My Wings
TTITLE8=I Will Always Love You
TTITLE9=Lady
TTITLE10=You Are So Beautiful
TTITLE11=You Light Up My Life
EXTD=
EXTT0=
EXTT1=
EXTT2=
EXTT3=
EXTT4=
EXTT5=
EXTT6=
EXTT7=
EXTT8=
EXTT9=
EXTT10=
EXTT11=
PLAYORDER=
